# xmcd CD database file
#
# Track frame offsets:
#	150
#	19155
#	40306
#	66907
#	89307
#	117970
#	150057
#	176679
#	215035
#
# Disc length: 3183 seconds
#
# Revision: 0
# Processed by: cddbd v1.5.2PL0 Copyright (c) Steve Scherf et al.
# Submitted via: CDex 1.70beta2
#
DISCID=720c6d09
DTITLE=Nostalgia 77 - Everything Under The Sun
DYEAR=2007
DGENRE=Jazz
TTITLE0=Wildflower
TTITLE1=Stop to Make a change
TTITLE2=Dreamers dance
TTITLE3=Little steps
TTITLE4=Eastwind
TTITLE5=Everthing under the sun
TTITLE6=Quiet dawn
TTITLE7=Arora
TTITLE8=Sｔeps of the sun
EXTD=YEAR: 2007
EXTT0=
EXTT1=
EXTT2=
EXTT3=
EXTT4=
EXTT5=
EXTT6=
EXTT7=
EXTT8=
PLAYORDER=
